<?xml version="1.0" encoding="UTF-8"?>
<svg xmlns="http://www.w3.org/2000/svg" version="1.1" viewBox="0 0 1024 768">
  <defs>
    <style>
      .cls-1 {
        fill: none;
        stroke: #000;
        stroke-miterlimit: 10;
      }
    </style>
  </defs>
  <!-- Generator: Adobe Illustrator 28.7.5, SVG Export Plug-In . SVG Version: 1.2.0 Build 176)  -->
  <g>
    <g id="_t´_1" data-name="t´_1">
      <g>
        <path class="cls-1" d="M351.68,204.53c-14.55-21.63-31-42.98-65.26-29.88-24.57,9.39-38.75,50.99-40.04,92.26,17.34-6.1,40.57-10.19,57.43-4.78,9.46-17.93,25.97-45.21,47.87-57.6Z"/>
        <path class="cls-1" d="M389.95,239.82c-11.95,15.57-34.1,48.54-40.22,85.79,12.78,16.2,29.14,28.56,50,27.89,2-19.65,7.4-37.3,15.4-47.54,20.99-26.87,7.12-57.78-25.17-66.14Z"/>
        <path class="cls-1" d="M386.42,239c-14.63-2.93-24.18-18.77-34.74-34.47-21.9,12.39-38.41,39.66-47.87,57.6,8.37,2.69,15.19,7.7,18.92,16,6.42,14.26,15.18,32.5,26.99,47.48,6.12-37.25,28.27-70.22,40.22-85.79-1.15-.3-2.32-.58-3.52-.82Z"/>
      </g>
      <g>
        <path class="cls-1" d="M341.54,483.6c-18.51,4.51-41.84,5.34-61.56,3.16-6.02,16.07-11.36,28.91-13.08,34.85-5.53,19.09,31.41,65.44,78.63,71.05-6.44-32.78-5.65-78.06-3.99-109.06Z"/>
        <path class="cls-1" d="M423.81,445.09c-2.47-2.15-4.74-4.61-6.83-7.31-20.5,6.45-38.83,15.36-44.48,27.31-4.16,8.82-15.99,14.86-30.97,18.51-1.67,31-2.46,76.28,3.99,109.06,8.71,1.03,17.78.68,26.99-1.48,59.13-13.91,84.35-117.39,51.3-146.09Z"/>
      </g>
      <g>
        <path class="cls-1" d="M721.95,578.69c14.55,21.63,31,42.98,65.26,29.88,24.57-9.39,38.75-50.99,40.04-92.26-17.34,6.1-40.57,10.19-57.43,4.78-9.46,17.93-25.97,45.21-47.87,57.6Z"/>
        <path class="cls-1" d="M683.69,543.4c11.95-15.57,34.1-48.54,40.22-85.79-12.78-16.2-29.14-28.56-50-27.89-2,19.65-7.4,37.3-15.4,47.54-20.99,26.87-7.12,57.78,25.17,66.14Z"/>
        <path class="cls-1" d="M687.21,544.22c14.63,2.93,24.18,18.77,34.74,34.47,21.9-12.39,38.41-39.66,47.87-57.6-8.37-2.69-15.19-7.7-18.92-16-6.42-14.26-15.18-32.5-26.99-47.48-6.12,37.25-28.27,70.22-40.22,85.79,1.15.3,2.32.58,3.52.82Z"/>
      </g>
      <g>
        <path class="cls-1" d="M732.1,299.62c18.51-4.51,41.84-5.34,61.56-3.16,6.02-16.07,11.36-28.91,13.08-34.85,5.53-19.09-31.41-65.44-78.63-71.05,6.44,32.78,5.65,78.06,3.99,109.06Z"/>
        <path class="cls-1" d="M649.82,338.13c2.47,2.15,4.74,4.61,6.83,7.31,20.5-6.45,38.83-15.36,44.48-27.31,4.16-8.82,15.99-14.86,30.97-18.51,1.67-31,2.46-76.28-3.99-109.06-8.71-1.03-17.78-.68-26.99,1.48-59.13,13.91-84.35,117.39-51.3,146.09Z"/>
      </g>
      <path class="cls-1" d="M324.55,282.14c-.63-1.36-1.23-2.7-1.82-4.01-11.26-25.02-50.41-20.34-76.36-11.22-1.07,34.29,6.76,68.33,24.94,83.54,15.84-24.46,36.45-53.6,53.24-68.31Z"/>
      <path class="cls-1" d="M399.72,353.5c-38.36,1.23-61.53-41.64-75.17-71.36-16.79,14.71-37.4,43.85-53.24,68.31,3.01,2.52,6.3,4.54,9.89,5.94,37.83,14.75,15.65,85.27-1.23,130.37,35.69,3.95,83.23-1.97,92.54-21.67,5.65-11.96,23.98-20.86,44.48-27.31-15.49-20.15-20.29-54.51-17.27-84.28ZM374.17,423.35c-13.04,15.65-44.35,53.91-49.62,9.42-5.27-44.49,19.6-65.07,19.6-65.07,27.37-16.52,43.07,40,30.02,55.65Z"/>
      <path class="cls-1" d="M802.32,432.77c-15.84,24.46-36.45,53.6-53.24,68.31.63,1.36,1.23,2.7,1.82,4.01,11.26,25.02,50.41,20.34,76.36,11.22,1.07-34.29-6.76-68.33-24.94-83.54Z"/>
      <path class="cls-1" d="M802.32,432.77c-3.01-2.52-6.3-4.54-9.89-5.94-37.83-14.75-15.65-85.27,1.23-130.37-35.69-3.95-83.23,1.97-92.54,21.67-5.65,11.96-23.98,20.86-44.48,27.31,15.49,20.15,20.29,54.51,17.27,84.28,38.36-1.23,61.53,41.64,75.17,71.36,16.79-14.71,37.4-43.85,53.24-68.31ZM744.8,389.9c-13.04,15.65-44.35,53.91-49.62,9.42-5.27-44.49,19.6-65.07,19.6-65.07,27.37-16.52,43.07,40,30.02,55.65Z"/>
      <path class="cls-1" d="M714.77,334.25s-24.87,20.58-19.6,65.07c5.27,44.49,36.58,6.23,49.62-9.42,13.04-15.65-2.65-72.17-30.02-55.65ZM733.17,382.68c-6.41,7.69-21.79,26.49-24.38,4.63-2.59-21.86,9.63-31.97,9.63-31.97,13.45-8.12,21.16,19.65,14.75,27.34Z"/>
      <path class="cls-1" d="M718.42,355.34s-12.22,10.11-9.63,31.97c2.59,21.86,17.97,3.06,24.38-4.63,6.41-7.69-1.3-35.46-14.75-27.34Z"/>
      <g>
        <path class="cls-1" d="M327.06,396.95c-2.75,9.51-4.22,21.4-2.51,35.82,3.74,31.57,20.59,21.47,34.72,7.36-16.15-13.12-26.16-29.55-32.21-43.18Z"/>
        <path class="cls-1" d="M344.15,367.7s-11.35,9.42-17.09,29.25c6.05,13.63,16.06,30.06,32.21,43.18,5.78-5.78,11.11-12.23,14.9-16.78,13.04-15.65-2.65-72.17-30.02-55.65Z"/>
      </g>
    </g>
  </g>
</svg>
